HIERARCHY
ROOT pelvis
{
  OFFSET 0 100 0
  CHANNELS 6 Xposition Yposition Zposition Zrotation Xrotation Yrotation
  JOINT pelvis_right_femur
  {
    OFFSET -10.78128 -3.44521 -0.5502486
    CHANNELS 3 Zrotation Xrotation Yrotation
    JOINT right_femur_tibia
    {
      OFFSET -0.8047443 -44.0398 -0.1307829
      CHANNELS 3 Zrotation Xrotation Yrotation
      JOINT right_tibia_foot
      {
        OFFSET 3.006224 -47.83518 -5
        CHANNELS 3 Zrotation Xrotation Yrotation
        End Site
        {
          OFFSET 0 -5 15
        }
      }
    }
  }
  JOINT pelvis_left_femur
  {
    OFFSET 10.78128 -3.44521 -0.5502486
    CHANNELS 3 Zrotation Xrotation Yrotation
    JOINT left_femur_tibia
    {
      OFFSET 0.8047443 -44.0398 -0.1307829
      CHANNELS 3 Zrotation Xrotation Yrotation
      JOINT left_tibia_foot
      {
        OFFSET -4.370144 -48.10324 -4.275266
        CHANNELS 3 Zrotation Xrotation Yrotation
        End Site
        {
          OFFSET 0 -5 15
        }
      }
    }
  }
  JOINT pelvis_spine1
  {
    OFFSET 0 6.468898 -3.129235
    CHANNELS 3 Zrotation Xrotation Yrotation
    JOINT spine1
    {
      OFFSET 0 23.15396 4.99043
      CHANNELS 3 Zrotation Xrotation Yrotation
      JOINT spine2
      {
        OFFSET 0 20.79997 -5.064912
        CHANNELS 3 Zrotation Xrotation Yrotation
        JOINT neck
        {
          OFFSET 0 14.38658 9.616178
          CHANNELS 3 Zrotation Xrotation Yrotation
          End Site
          {
            OFFSET 0 20 0
          }
        }
      }
      JOINT right_manubrium
      {
        OFFSET -5.722621 16.35077 3.967754
        CHANNELS 3 Zrotation Xrotation Yrotation
        JOINT right_clavicle
        {
          OFFSET -13.16364 1.694482 -4.693211
          CHANNELS 3 Zrotation Xrotation Yrotation
          JOINT right_humerus
          {
            OFFSET -28.5034 -0.3100689 -2.792744
            CHANNELS 3 Zrotation Xrotation Yrotation
            JOINT right_radius
            {
              OFFSET -25.15693 0.02248979 -1.271978
              CHANNELS 3 Zrotation Xrotation Yrotation
              End Site
              {
                OFFSET -15 0 0
              }
            }
          }
        }
      }
      JOINT left_manubrium
      {
        OFFSET 5.722621 16.35077 3.967754
        CHANNELS 3 Zrotation Xrotation Yrotation
        JOINT left_clavicle
        {
          OFFSET 13.16364 1.694482 -4.693211
          CHANNELS 3 Zrotation Xrotation Yrotation
          JOINT left_humerus
          {
            OFFSET 29.39168 -1.063119 -2.237045
            CHANNELS 3 Zrotation Xrotation Yrotation
            JOINT left_radius
            {
              OFFSET 24.59957 -0.9528479 0.9047498
              CHANNELS 3 Zrotation Xrotation Yrotation
              End Site
              {
                OFFSET 15 -0 -0
              }
            }
          }
        }
      }
    }
  }
}
MOTION
Frames: 9
Frame Time: 0.0416666666667
1811.164 92.97298 2429.933 6.582251 -0.852925 64.17086 -0.2031301 13.93508 5.376918 -0 43.79918 -0 2.363542 -3.572973 -4.102518 -3.525452 -17.61477 -5.967986 -0 21.94483 -0 -3.484878 -8.97114 18.1871 -3.263985 -0.5918255 7.895819 -0.8508268 10.30746 -3.900678 1.804403 21.47025 4.926715 1.803838 -18.81364 6.588927 1.919168 -21.11376 10.91721 82.63562 24.67301 -7.424362 -0 0 21.93379 -23.74639 9.525434 14.42783 2.532405 -14.80753 -3.08182 -91.76854 23.62183 25.69435 0 0 -9.618282 -1.678057 3.243462 17.17341
1817.717 94.21222 2431.767 6.791136 -0.6605333 65.10967 -0.5624481 9.648114 4.922896 -0 50.94547 -0 2.249026 0.2521439 -5.082138 -4.743703 -12.87367 -6.658704 -0 22.38597 -0 -2.385875 -9.975747 17.92258 -3.831162 -0.6819158 6.951148 -0.5930405 10.74751 -4.678546 1.456786 21.57496 5.649855 2.05616 -18.912 6.881148 3.131975 -20.01549 11.19708 83.4135 27.05176 -9.236524 -0 0 19.22853 -24.73718 11.177 14.79498 2.255054 -15.6283 -3.511779 -90.23452 23.29253 23.53674 0 0 -10.25458 -1.298638 3.980544 16.44442
1823.94 95.48113 2433.443 7.323692 -0.7733948 66.26452 -0.6972917 4.306265 4.498669 -0 54.59065 -0 2.892927 1.553909 -6.270716 -5.40273 -7.886659 -7.331236 -0 21.70169 -0 -2.324884 -11.37414 17.47628 -3.850518 -0.3787914 6.016012 -0.5904162 10.81349 -5.145646 1.434467 21.84213 6.268233 2.152372 -18.0008 7.485218 3.88326 -18.73327 11.16527 84.21171 28.40282 -10.89441 -0 0 17.38904 -25.86909 13.2829 14.81047 2.497815 -16.30545 -3.97022 -88.63259 23.20539 20.59326 0 0 -11.61603 -1.231249 5.080781 16.03494
1829.846 96.4473 2435.005 8.04804 -1.045094 67.51581 -0.7595899 -1.428018 4.011536 -0 54.45746 -0 3.999949 0.4713278 -7.488224 -5.62224 -2.909798 -8.068903 -0 20.34273 -0 -3.272343 -12.9304 16.70564 -3.481753 0.1760124 5.137807 -0.8235715 10.38728 -5.273099 1.762252 22.30023 6.6473 2.023651 -16.28259 8.334887 4.068315 -17.23262 10.76352 85.01758 28.85082 -12.28494 -0 0 16.23549 -26.83678 15.59685 14.41178 3.185316 -16.7392 -4.340009 -86.94352 23.4762 16.98565 0 0 -13.63197 -1.31961 6.559214 15.84212
1835.524 96.93454 2436.539 8.797869 -1.312691 68.75798 -0.8728366 -6.941243 3.433262 -0 51.18678 -0 5.121849 -2.115587 -8.562579 -5.572596 1.876108 -8.844893 -0 19.03058 -0 -4.78446 -14.37559 15.69083 -2.995052 0.7910983 4.318993 -1.145068 9.577106 -5.186247 2.33863 22.91647 6.751736 1.676424 -14.22516 9.299077 3.803887 -15.55603 10.11135 85.87272 28.81686 -13.48576 -0 0 15.28671 -27.46838 17.85012 13.71163 4.077566 -16.98114 -4.583733 -85.12449 24.02227 12.92142 0 0 -16.1173 -1.398461 8.281448 15.67912
1841.084 96.91479 2438.136 9.44789 -1.470311 69.91156 -1.083708 -11.72795 2.813302 -0 45.90065 -0 5.929592 -5.209916 -9.437253 -5.402323 6.294324 -9.573988 -0 18.252 -0 -6.323118 -15.53537 14.64476 -2.616734 1.308032 3.56286 -1.392364 8.598934 -5.040118 3.016783 23.61023 6.60836 1.168057 -12.30692 10.23318 3.277033 -13.84449 9.394787 86.80362 28.63556 -14.60417 -0 0 14.17649 -27.71073 19.77112 12.88816 4.911953 -17.11655 -4.715379 -83.22542 24.67133 8.737328 0 0 -18.78022 -1.399792 10.00337 15.44106
1846.626 96.46889 2439.854 9.91053 -1.47167 70.92972 -1.355461 -15.43942 2.249984 -0 39.83999 -0 6.261522 -7.965771 -10.13834 -5.221465 10.14633 -10.14603 -0 18.13522 -0 -7.448892 -16.36423 13.79316 -2.472164 1.621802 2.894724 -1.449341 7.694602 -4.964489 3.640246 24.26131 6.292975 0.6021742 -10.90586 10.99054 2.671112 -12.31118 8.793232 87.78212 28.46471 -15.71214 -0 0 12.78743 -27.59325 21.12028 12.11587 5.499975 -17.23894 -4.766545 -81.40589 25.23064 4.878065 0 0 -21.28892 -1.325227 11.43459 15.10382
1852.222 95.73539 2441.71 10.11007 -1.318336 71.79941 -1.588492 -17.96363 1.844109 -0 34.06796 -0 6.111607 -9.786001 -10.69252 -5.097558 13.23397 -10.45542 -0 18.51416 -0 -7.938204 -16.91536 13.27625 -2.567723 1.684568 2.362043 -1.276283 7.072721 -5.047027 4.065432 24.72391 5.929626 0.1217345 -10.24369 11.44181 2.144582 -11.17824 8.434479 88.72467 28.34584 -16.84123 -0 0 11.23709 -27.21035 21.76671 11.52681 5.788496 -17.45636 -4.766093 -79.88973 25.52764 1.807152 0 0 -23.37469 -1.178396 12.32278 14.66789
1857.922 94.85905 2443.681 9.994213 -1.058038 72.53634 -1.665098 -19.46828 1.648384 -0 29.235 -0 5.623075 -10.40748 -11.08578 -5.047993 15.4346 -10.44215 -0 19.13809 -0 -7.849857 -17.26622 13.09134 -2.795501 1.514814 2.013811 -0.9219156 6.846033 -5.314486 4.207074 24.87315 5.657419 -0.1378321 -10.33091 11.52611 1.808771 -10.57778 8.358769 89.53045 28.27179 -17.98469 -0 0 9.780197 -26.69806 21.76955 11.17295 5.869181 -17.86089 -4.73372 -78.86547 25.45454 -0.1638618 0 0 -24.92811 -0.9273002 12.55008 14.12968
